<svg xmlns="http://www.w3.org/2000/svg" width="129.039" height="23.842" viewBox="0 0 129.039 23.842">
  <g id="Group_10" data-name="Group 10" transform="translate(1.02 1)">
    <path id="Icon_awesome-star" data-name="Icon awesome-star" d="M11.614.758,8.832,6.4l-6.224.907a1.364,1.364,0,0,0-.754,2.326l4.5,4.388-1.065,6.2a1.362,1.362,0,0,0,1.977,1.436l5.568-2.927L18.4,21.653a1.363,1.363,0,0,0,1.977-1.436l-1.065-6.2,4.5-4.388a1.364,1.364,0,0,0-.754-2.326L16.841,6.4,14.06.758a1.364,1.364,0,0,0-2.445,0Z" transform="translate(24.611 0.001)" fill="#fff" stroke="#000" stroke-width="2"/>
    <path id="Icon_awesome-star-2" data-name="Icon awesome-star" d="M11.614.758,8.832,6.4l-6.224.907a1.364,1.364,0,0,0-.754,2.326l4.5,4.388-1.065,6.2a1.362,1.362,0,0,0,1.977,1.436l5.568-2.927L18.4,21.653a1.363,1.363,0,0,0,1.977-1.436l-1.065-6.2,4.5-4.388a1.364,1.364,0,0,0-.754-2.326L16.841,6.4,14.06.758a1.364,1.364,0,0,0-2.445,0Z" transform="translate(102.768 0.001)" fill="#fff" stroke="#000" stroke-width="2"/>
    <path id="Icon_awesome-star-3" data-name="Icon awesome-star" d="M11.614.758,8.832,6.4l-6.224.907a1.364,1.364,0,0,0-.754,2.326l4.5,4.388-1.065,6.2a1.362,1.362,0,0,0,1.977,1.436l5.568-2.927L18.4,21.653a1.363,1.363,0,0,0,1.977-1.436l-1.065-6.2,4.5-4.388a1.364,1.364,0,0,0-.754-2.326L16.841,6.4,14.06.758a1.364,1.364,0,0,0-2.445,0Z" transform="translate(76.715 0.001)" fill="#fff" stroke="#000" stroke-width="2"/>
    <path id="Icon_awesome-star-4" data-name="Icon awesome-star" d="M11.614.758,8.832,6.4l-6.224.907a1.364,1.364,0,0,0-.754,2.326l4.5,4.388-1.065,6.2a1.362,1.362,0,0,0,1.977,1.436l5.568-2.927L18.4,21.653a1.363,1.363,0,0,0,1.977-1.436l-1.065-6.2,4.5-4.388a1.364,1.364,0,0,0-.754-2.326L16.841,6.4,14.06.758a1.364,1.364,0,0,0-2.445,0Z" transform="translate(-1.441 0.001)" fill="#fff" stroke="#000" stroke-width="2"/>
    <path id="Icon_awesome-star-5" data-name="Icon awesome-star" d="M11.614.758,8.832,6.4l-6.224.907a1.364,1.364,0,0,0-.754,2.326l4.5,4.388-1.065,6.2a1.362,1.362,0,0,0,1.977,1.436l5.568-2.927L18.4,21.653a1.363,1.363,0,0,0,1.977-1.436l-1.065-6.2,4.5-4.388a1.364,1.364,0,0,0-.754-2.326L16.841,6.4,14.06.758a1.364,1.364,0,0,0-2.445,0Z" transform="translate(50.663 0.001)" fill="#fff" stroke="#000" stroke-width="2"/>
  </g>
</svg>
