<svg xmlns="http://www.w3.org/2000/svg" width="65.899" height="65.899" viewBox="0 0 65.899 65.899">
  <path id="Icon_awesome-plus-circle" data-name="Icon awesome-plus-circle" d="M33.512.563A32.949,32.949,0,1,0,66.461,33.512,32.944,32.944,0,0,0,33.512.563Zm19.132,36.67a1.6,1.6,0,0,1-1.594,1.594H38.826V51.05a1.6,1.6,0,0,1-1.594,1.594h-7.44A1.6,1.6,0,0,1,28.2,51.05V38.826H15.974a1.6,1.6,0,0,1-1.594-1.594v-7.44A1.6,1.6,0,0,1,15.974,28.2H28.2V15.974a1.6,1.6,0,0,1,1.594-1.594h7.44a1.6,1.6,0,0,1,1.594,1.594V28.2H51.05a1.6,1.6,0,0,1,1.594,1.594Z" transform="translate(-0.563 -0.563)"/>
</svg>
