<svg xmlns="http://www.w3.org/2000/svg" width="26.999" height="27" viewBox="0 0 26.999 27">
  <path id="Icon_ionic-ios-person" data-name="Icon ionic-ios-person" d="M31.486,30.818c-.506-2.236-3.4-3.326-4.395-3.677a32.764,32.764,0,0,0-3.663-.7,3.722,3.722,0,0,1-1.695-.78c-.281-.337-.112-3.466-.112-3.466a10.429,10.429,0,0,0,.8-1.526A19.68,19.68,0,0,0,23.013,18s.577,0,.78-1.013a9.962,9.962,0,0,0,.52-2.355c-.042-.809-.485-.788-.485-.788a12.328,12.328,0,0,0,.478-3.607c.063-2.89-2.2-5.738-6.3-5.738-4.155,0-6.37,2.848-6.307,5.738a12.859,12.859,0,0,0,.471,3.607s-.443-.021-.485.788a9.962,9.962,0,0,0,.52,2.355c.2,1.013.78,1.013.78,1.013a19.68,19.68,0,0,0,.591,2.665,10.429,10.429,0,0,0,.8,1.526s.169,3.129-.113,3.466a3.722,3.722,0,0,1-1.695.78,32.764,32.764,0,0,0-3.663.7c-1,.352-3.888,1.441-4.395,3.677a.562.562,0,0,0,.555.682H30.938A.561.561,0,0,0,31.486,30.818Z" transform="translate(-4.501 -4.5)"/>
</svg>
